<svg width="512" height="512" viewBox="0 0 512 512" fill="none" xmlns="http://www.w3.org/2000/svg">
  <rect width="512" height="512" rx="87" fill="url(#paint0_linear_345_94)"/>
  <path transform="translate(256 256) scale(1.08) translate(-256 -256)" fill-rule="evenodd" clip-rule="evenodd" d="M114.629 93.7735C105.77 96.2774 97.9869 104.286 95.0665 113.903C93.7249 118.32 93.6361 125.924 94.8735 130.407C98.0148 141.79 106.389 150.128 116.973 152.412C121.29 153.343 124.521 153.407 128.134 152.632C145.79 148.845 155.744 131.194 150.426 113.1C147.83 104.267 139.47 96.2695 130.172 93.7242C126.567 92.7376 118.2 92.7638 114.629 93.7735ZM257.215 115.598C239.498 117.455 224.745 128.852 214.647 148.483C199.754 177.437 194.347 229.683 201.309 277.373C205.723 307.611 216.323 333.626 232.528 353.993L236.801 359.363L235.369 359.977C229.12 362.657 214.493 363.323 205.805 361.323C196.639 359.213 187.011 354.907 179.39 349.509C174.704 346.19 166.074 337.115 162.354 331.595C152.411 316.838 146.423 297.008 144.51 272.498C144.19 268.399 143.987 245.317 143.987 213.162V160.534H123.297H102.608L102.611 214.369C102.614 271.517 102.802 277.403 105.138 293.353C109.97 326.342 122.901 353.939 142.804 373.734C151.842 382.724 160.196 388.759 171.406 394.399C182.878 400.171 193.023 403.33 205.412 404.987C215.095 406.282 230.726 405.813 238.777 403.986C249.719 401.503 261.356 396.894 270.277 391.51L274.676 388.856L279.002 390.967C301.47 401.93 326.61 406.052 352.874 403.079C364.184 401.8 381.293 397.087 391.819 392.352C394.029 391.358 395.921 390.545 396.023 390.545C396.334 390.545 399.635 405.298 401.99 417.216L402.343 419L406.72 411.933C417.175 395.05 435.502 361.437 441.137 348.807C444.031 342.322 445.148 339.594 444.984 339.421C444.895 339.328 440.567 338.873 435.366 338.411C417.588 336.832 384.76 332.187 366.875 328.719C365.39 328.431 363.411 328.195 362.479 328.195H360.783L361.773 329.636C362.317 330.429 366.273 335.412 370.563 340.71C374.982 346.167 378.176 350.541 377.93 350.799C377.139 351.631 364.04 356.381 358.792 357.74C349.226 360.215 343.223 360.837 331.936 360.524C323.574 360.292 320.645 359.998 315.827 358.906C308.143 357.166 304.018 355.934 304.018 355.381C304.018 355.136 304.914 353.395 306.011 351.513C310.204 344.312 315.798 331.719 318.714 322.915C326.873 298.28 330.102 274.721 330.126 239.649C330.14 219.215 329.597 211.613 326.986 195.729C324.055 177.891 319.79 163.863 313.423 151.111C300.834 125.897 280.647 113.143 257.215 115.598ZM265.68 159.568C274.962 162.886 283.1 181.663 286.762 208.213C289.425 227.523 289.043 256.498 285.828 278.945C283.151 297.637 277.273 315.928 270.276 327.336C268.087 330.906 268.065 330.924 267.027 329.955C265.106 328.164 260.11 321.205 257.56 316.768C249.613 302.941 243.694 282.53 241.425 261.131C239.811 245.899 239.944 222.338 241.74 205.331C243.075 192.688 247.525 175.691 251.237 169.054C253.656 164.728 257.961 160.299 260.403 159.621C263.104 158.872 263.717 158.866 265.68 159.568Z" fill="white"/>
  <defs>
    <linearGradient id="paint0_linear_345_94" x1="256" y1="0" x2="256" y2="512" gradientUnits="userSpaceOnUse">
      <stop offset="0.427885" stop-color="#0A1017"/>
      <stop offset="1" stop-color="#2F5F80"/>
    </linearGradient>
  </defs>
</svg>
